<?xml version="1.0" encoding="UTF-8" standalone="no"?>
<!-- Created with Inkscape (http://www.inkscape.org/) -->

<svg
   xmlns:dc="http://purl.org/dc/elements/1.1/"
   xmlns:cc="http://creativecommons.org/ns#"
   xmlns:rdf="http://www.w3.org/1999/02/22-rdf-syntax-ns#"
   xmlns:svg="http://www.w3.org/2000/svg"
   xmlns="http://www.w3.org/2000/svg"
   xmlns:sodipodi="http://sodipodi.sourceforge.net/DTD/sodipodi-0.dtd"
   xmlns:inkscape="http://www.inkscape.org/namespaces/inkscape"
   width="270"
   height="270"
   id="svg2"
   version="1.1"
   inkscape:version="0.48.3.1 r9886"
   sodipodi:docname="pss-logo-mod-plain.svg">
  <defs
     id="defs4" />
  <sodipodi:namedview
     id="base"
     pagecolor="#ffffff"
     bordercolor="#666666"
     borderopacity="1.0"
     inkscape:pageopacity="0.0"
     inkscape:pageshadow="2"
     inkscape:zoom="1"
     inkscape:cx="15.282713"
     inkscape:cy="81.25789"
     inkscape:document-units="in"
     inkscape:current-layer="layer1"
     showgrid="true"
     inkscape:window-width="1199"
     inkscape:window-height="699"
     inkscape:window-x="87"
     inkscape:window-y="27"
     inkscape:window-maximized="0"
     units="in"
     inkscape:snap-global="false"
     fit-margin-top="0"
     fit-margin-left="0"
     fit-margin-right="0"
     fit-margin-bottom="0">
    <inkscape:grid
       type="xygrid"
       id="grid2985"
       units="in"
       empspacing="4"
       visible="true"
       enabled="true"
       snapvisiblegridlinesonly="true"
       spacingx="0.25in"
       spacingy="0.25in"
       originx="-3.0582963in"
       originy="-4.1273501in" />
  </sodipodi:namedview>
  <metadata
     id="metadata7">
    <rdf:RDF>
      <cc:Work
         rdf:about="">
        <dc:format>image/svg+xml</dc:format>
        <dc:type
           rdf:resource="http://purl.org/dc/dcmitype/StillImage" />
        <dc:title />
      </cc:Work>
    </rdf:RDF>
  </metadata>
  <g
     inkscape:label="Layer 1"
     inkscape:groupmode="layer"
     id="layer1"
     transform="translate(-275.24667,-410.90049)">
    <g
       id="g2992"
       transform="translate(46.793785,-49.8329)">
      <g
         id="g2989">
        <path
           inkscape:connector-curvature="0"
           d="m 451.6591,537.0542 -25.54718,0 14.67574,-26.48791 -154.99826,0 14.8475,26.4879 -25.39023,0 38.59899,143.8463 92.17347,0 45.63997,-143.8463 z"
           style="fill:#000000;fill-opacity:1;fill-rule:evenodd;stroke:none"
           id="path4107" />
      </g>
    </g>
    <path
       inkscape:connector-curvature="0"
       d="m 489.68356,493.63907 -2.99591,9.4424 -30.98376,97.65346 -7.58779,23.91488 -41.50867,0 -20.70704,0 -20.33825,0 -6.66843,-24.85115 -24.85078,-92.61105 -3.63555,-13.54854 10.27559,0 10.56482,0 7.13756,0 -3.92214,-6.99709 -10.92535,-19.49081 26.09272,0 83.88465,0 23.17342,0 -9.26675,16.72534 -1.84956,3.33822 -3.55944,6.42434 5.0253,0 9.93093,0 12.71444,0 z"
       style="fill:#ffffff;fill-opacity:1;fill-rule:evenodd;stroke:none"
       id="path4109" />
    <path
       inkscape:connector-curvature="0"
       d="m 479.21525,501.55196 -10.42301,33.08175 -21.18483,67.23875 -4.78688,15.19314 -23.83294,0 -31.36447,0 -15.70963,0 -4.03659,-14.99725 -21.93508,-81.49595 -5.11946,-19.02044 14.44582,0 17.28131,0 -7.35771,-12.89024 -7.94971,-13.92737 18.00033,0 64.04956,0 24.88718,0 -6.28345,12.85253 -6.82735,13.96508 14.96596,0 13.18095,0 z"
       style="fill:#002b65;fill-opacity:1;fill-rule:evenodd;stroke:none"
       id="path4111" />
    <path
       inkscape:connector-curvature="0"
       d="m 409.83584,498.39354 0,42.46558 0.36629,0 c 2.25054,0.0221 4.49917,-0.15705 6.72526,-0.53585 4.92189,-0.82169 9.21683,-4.24709 11.58969,-9.24329 2.61776,-5.84765 3.29938,-12.57909 1.91942,-18.95546 -1.34994,-6.97813 -6.33852,-12.2726 -12.52743,-13.2956 -2.67833,-0.36796 -5.37649,-0.51346 -8.07323,-0.43538 z m -31.57498,-5.10726 c 10.67596,1.33903 21.43774,1.54084 32.1464,0.60283 4.57103,-0.31811 9.15334,-0.36841 13.72888,-0.1507 3.66292,0.23803 7.27126,1.12493 10.69594,2.62897 10.97053,4.96866 16.3395,19.1604 11.99194,31.69817 -2.11518,6.09986 -6.28931,10.97027 -11.58168,13.51361 -4.55969,2.18773 -9.41942,3.44588 -14.35892,3.71741 -3.67866,0.23994 -7.36305,0.34605 -11.04758,0.31816 l 0,32.71992 c -0.0195,1.42926 0,2.85888 0.0586,4.28675 0.0197,0.35411 0.0588,0.70645 0.11721,1.05494 0.25147,1.11203 0.94625,2.02394 1.87545,2.46153 0.71508,0.31444 1.45642,0.54448 2.21245,0.68655 2.03823,0.36199 4.09282,0.59121 6.15382,0.68655 1.13501,0.11173 2.26826,0.24572 3.39926,0.40188 l 0,5.02353 c -15.10313,-1.47357 -30.28866,-1.47357 -45.39178,0 l 0,-5.02353 c 3.10896,-0.20191 6.20546,-0.60443 9.27469,-1.20565 0.33658,-0.0732 0.66923,-0.16819 0.99633,-0.28467 0.57051,-0.2408 1.04458,-0.71114 1.33333,-1.32286 0.36261,-0.77821 0.58201,-1.633 0.64469,-2.51176 0.0732,-1.02485 0.10744,-2.05286 0.10256,-3.0811 l 0,-70.94899 c -0.005,-1.50264 -0.0489,-3.00478 -0.13187,-4.50444 -0.0442,-0.47756 -0.10771,-0.95251 -0.19047,-1.42332 -0.14337,-0.87374 -0.60036,-1.63893 -1.26007,-2.10989 -0.47841,-0.34259 -0.99619,-0.60746 -1.53846,-0.78701 -1.59546,-0.50447 -3.22911,-0.83526 -4.8791,-0.98796 l -4.35163,-0.35166 0,-5.10726 z"
       style="fill:#000000;fill-opacity:1;fill-rule:evenodd;stroke:#ffffff;stroke-width:0.90000004;stroke-linecap:butt;stroke-linejoin:miter;stroke-miterlimit:4;stroke-opacity:1;stroke-dasharray:none"
       id="path4113" />
    <path
       inkscape:connector-curvature="0"
       d="m 418.89632,577.4716 0,-15.92891 2.50216,0 c 0.37103,1.86478 0.84065,3.70859 1.40688,5.52366 0.91288,2.85886 2.67493,5.37184 5.05156,7.20436 4.81695,3.40693 11.47129,2.35581 15.00358,-2.36998 1.89765,-2.89445 2.23376,-6.54239 0.897,-9.73486 -0.70323,-1.45007 -1.77433,-2.69045 -3.10646,-3.59746 -1.5485,-1.05746 -3.19981,-1.95588 -4.92881,-2.68157 -2.57923,-1.04794 -5.12955,-2.16567 -7.64814,-3.35197 -2.0877,-0.97867 -3.94691,-2.38434 -5.45757,-4.12622 -6.03228,-7.00073 -5.24719,-17.56607 1.75354,-23.59834 2.0842,-1.79589 4.57908,-3.05015 7.26372,-3.65172 3.38494,-0.61568 6.87552,-0.24532 10.0559,1.06697 l 2.53993,0.9631 c 0.60543,0.22726 1.2529,0.32067 1.89788,0.27381 0.52789,-0.0623 1.04168,-0.21229 1.52019,-0.44377 0.25717,-0.11138 0.50922,-0.23424 0.75536,-0.36825 l 2.29445,0 0,13.62503 -2.5305,0 c -0.34374,-1.74617 -0.81071,-3.4658 -1.39744,-5.14597 -1.06198,-3.03344 -3.3262,-5.49573 -6.26015,-6.8078 -4.10503,-1.83669 -8.93225,-0.67738 -11.75547,2.82321 -1.89095,2.46903 -2.37295,5.73944 -1.2747,8.64901 0.60917,1.39958 1.61745,2.58849 2.89875,3.41806 1.54101,1.00213 3.16837,1.86478 4.8627,2.57771 2.64727,1.07103 5.26083,2.22352 7.83698,3.45583 2.72878,1.28697 5.12085,3.19093 6.9872,5.56143 2.84735,4.02575 3.84335,9.07447 2.73823,13.87996 -1.99209,9.74818 -11.50944,16.03574 -21.25761,14.04366 -0.35382,-0.0723 -0.70538,-0.15523 -1.0542,-0.24867 -1.68465,-0.44519 -3.35945,-0.92686 -5.02323,-1.44465 -0.57631,-0.17785 -1.1727,-0.28254 -1.77512,-0.31159 -0.50726,-0.009 -1.01216,0.0709 -1.49187,0.23606 -0.46485,0.14624 -0.92183,0.31643 -1.36911,0.50987 l -1.93564,0 z"
       style="fill:#000000;fill-opacity:1;fill-rule:evenodd;stroke:#ffffff;stroke-width:0.90000004;stroke-linecap:butt;stroke-linejoin:miter;stroke-miterlimit:4;stroke-opacity:1;stroke-dasharray:none"
       id="path4115" />
    <path
       inkscape:connector-curvature="0"
       d="m 377.5645,551.65833 -0.89085,-1.47214 -0.68329,-1.13757 c -0.39738,-0.68457 -0.77524,-1.38275 -1.13304,-2.0935 -0.30891,-0.63538 -0.59739,-1.28263 -0.86491,-1.94055 -0.30107,-0.74471 -0.52729,-1.52368 -0.67463,-2.32293 -0.15216,-0.77556 -0.2247,-1.56762 -0.21623,-2.36116 0.002,-1.2303 0.20071,-2.45051 0.58814,-3.60389 0.36603,-1.10274 0.91449,-2.12062 1.61739,-3.00163 0.4728,-0.59987 1.01349,-1.12999 1.60874,-1.5773 0.68142,-0.5096 1.41255,-0.93288 2.17958,-1.26184 0.64582,-0.2743 1.31123,-0.48854 1.9893,-0.64047 0.67895,-0.1429 1.36751,-0.22284 2.0585,-0.23899 0.72203,-0.01 1.44322,0.0578 2.15363,0.20075 0.69257,0.14599 1.37047,0.36691 2.0239,0.6596 0.73226,0.32745 1.41708,0.77192 2.03254,1.31919 0.57458,0.49926 1.0738,1.09618 1.47901,1.76848 0.40535,0.6618 0.71197,1.39122 0.90816,2.16042 0.23175,0.87908 0.35111,1.78967 0.35461,2.7053 0.0111,0.92915 -0.0936,1.85557 -0.31137,2.7531 -0.1722,0.7476 -0.45572,1.45831 -0.83896,2.10306 -0.30318,0.51477 -0.64455,1.00078 -1.0206,1.45302 -0.52725,0.6166 -1.08757,1.19758 -1.67793,1.73981 l -0.73518,0.6596 -0.96005,0.85078 c 1.53689,2.03438 3.06492,4.07693 4.58404,6.12755 0.76141,1.01799 1.51392,2.04408 2.25742,3.07812 0.79034,1.08503 1.57168,2.17803 2.34392,3.27887 1.5573,2.20039 3.10551,4.40863 4.64458,6.62464 0.57206,-1.02581 1.13428,-2.05828 1.68658,-3.09724 0.26957,-0.5196 0.5291,-1.04548 0.77842,-1.57729 0.26983,-0.58708 0.52936,-1.17987 0.77843,-1.77805 0.31614,-0.76276 0.62177,-1.53078 0.9168,-2.3038 0.20264,-0.53507 0.37311,-1.08433 0.5103,-1.64422 0.0974,-0.39727 0.16108,-0.80371 0.19028,-1.21404 0.023,-0.28546 -0.0125,-0.57298 -0.10378,-0.84122 -0.0601,-0.20205 -0.17483,-0.37887 -0.32867,-0.50665 -0.13511,-0.12213 -0.29097,-0.21314 -0.4584,-0.26766 -0.30325,-0.11047 -0.61645,-0.18419 -0.93411,-0.21986 l -1.46171,-0.17207 -1.40115,-0.13383 -1.04655,-0.086 -2.16228,-0.14339 0,-3.40314 c 2.11207,0.14017 4.22547,0.25489 6.33981,0.34414 1.05463,0.0478 2.11008,0.0701 3.16559,0.0669 1.28373,-0.003 2.56715,-0.0446 3.84886,-0.12427 2.56816,-0.15622 5.1343,-0.35061 7.69773,-0.58313 l 0,2.90605 -1.30602,0.21987 -1.01195,0.19119 c -0.62168,0.12521 -1.2367,0.28796 -1.84227,0.48753 -0.43008,0.14578 -0.84936,0.32794 -1.25412,0.54489 -0.51644,0.2796 -1.00613,0.61587 -1.46171,1.00373 -0.49366,0.41741 -0.95115,0.88465 -1.36656,1.39567 -0.44421,0.54424 -0.87116,1.1054 -1.28007,1.68245 -0.48562,0.69545 -0.95287,1.40633 -1.40116,2.13174 -0.45644,0.73214 -0.90335,1.47147 -1.34062,2.21777 -0.45947,0.77701 -0.90927,1.56095 -1.34926,2.35161 l -1.16763,2.07438 -0.21623,0.37282 -0.5103,0.85078 -1.04655,1.68245 4.81757,7.44674 c 0.48661,0.74365 0.98254,1.4798 1.48765,2.20822 0.37161,0.52105 0.75224,1.03417 1.14169,1.53906 0.54991,0.69466 1.16776,1.31983 1.84226,1.86407 0.53114,0.42019 1.11356,0.75492 1.72983,0.99418 0.44337,0.17347 0.90109,0.29834 1.36656,0.37281 0.71544,0.13032 1.43767,0.21014 2.16229,0.23899 l 0.87356,0.0382 1.13304,0.0382 0,2.35161 c -0.82151,-0.0223 -1.64326,-0.0319 -2.46501,-0.0287 -0.40971,0.003 -0.81927,0.0191 -1.22817,0.0478 -0.39878,0.0255 -0.79681,0.0638 -1.19358,0.11472 -0.78275,0.0989 -1.56413,0.21041 -2.34392,0.33457 -0.99758,0.15595 -1.99826,0.28663 -3.00125,0.39194 -0.77689,0.0764 -1.55565,0.12742 -2.33527,0.15295 -0.77208,0.0286 -1.54448,-0.0453 -2.30067,-0.21987 -0.58377,-0.13478 -1.14825,-0.35668 -1.67793,-0.65959 -0.32142,-0.19406 -0.62549,-0.42131 -0.90816,-0.67872 -0.45894,-0.43408 -0.895,-0.89687 -1.30602,-1.38611 -0.27105,-0.32939 -0.53351,-0.66729 -0.78707,-1.01329 -0.2283,-0.31732 -0.44752,-0.6425 -0.65733,-0.97506 l -2.56879,-4.11053 -1.02925,1.28095 -0.81302,0.97506 c -0.77747,0.91217 -1.61279,1.76192 -2.4996,2.54279 -0.77835,0.6818 -1.60563,1.29243 -2.47365,1.82584 -0.66953,0.41417 -1.36631,0.77207 -2.08444,1.07065 -0.78609,0.34086 -1.59234,0.62192 -2.41311,0.84123 -0.7347,0.20293 -1.4799,0.35616 -2.23148,0.45884 -0.66799,0.0986 -1.34132,0.14653 -2.01524,0.1434 -0.97241,-2.4e-4 -1.9426,-0.10267 -2.89746,-0.3059 -0.92677,-0.20115 -1.83349,-0.50212 -2.70718,-0.89859 -1.04149,-0.47769 -2.03087,-1.08377 -2.94936,-1.80671 -0.99014,-0.78834 -1.90323,-1.6886 -2.72448,-2.68619 -0.72736,-0.88176 -1.37617,-1.83893 -1.9374,-2.85825 -0.54202,-0.97343 -0.99406,-2.00466 -1.34927,-3.07812 -0.32538,-0.98165 -0.57423,-1.99225 -0.74383,-3.02076 -0.16102,-1.04532 -0.24203,-2.10378 -0.24218,-3.16415 3.2e-4,-1.21456 0.11629,-2.42571 0.34597,-3.61344 0.21499,-1.1635 0.54265,-2.29804 0.97735,-3.38402 0.54335,-1.38305 1.24379,-2.68402 2.08444,-3.87154 0.86502,-1.23912 1.86424,-2.35635 2.9753,-3.32666 0.55874,-0.499 1.1389,-0.96795 1.73848,-1.40523 0.63605,-0.4753 1.29117,-0.91867 1.96335,-1.32875 l 0.97736,-0.58312 1.9893,-1.12801 z m 1.48765,2.08395 4.72242,6.6342 2.32662,3.29798 c 1.23788,1.76579 2.45749,3.54713 3.65859,5.34369 0.74523,1.10991 1.47188,2.23492 2.17958,3.37445 l 0.9168,1.49126 1.79037,3.01121 c -0.43892,0.47446 -0.88587,0.93976 -1.34061,1.39566 -0.28667,0.27744 -0.58088,0.54523 -0.88221,0.80299 -0.85327,0.72164 -1.81306,1.27468 -2.83692,1.63465 -1.11687,0.40404 -2.28448,0.61051 -3.45965,0.6118 -0.99211,0.003 -1.98043,-0.1355 -2.94071,-0.41105 -0.87914,-0.26434 -1.72049,-0.66333 -2.4996,-1.18536 -0.86086,-0.58924 -1.65125,-1.2958 -2.35256,-2.10306 -0.77372,-0.90017 -1.45268,-1.89431 -2.0239,-2.96341 -0.72135,-1.37115 -1.27951,-2.8395 -1.66063,-4.36863 -0.37809,-1.55934 -0.57572,-3.16538 -0.58814,-4.77968 -0.003,-1.11561 0.0871,-2.22915 0.26812,-3.32666 0.18762,-1.07151 0.46561,-2.12125 0.83032,-3.13548 0.27512,-0.75369 0.61393,-1.47703 1.01194,-2.16041 0.3517,-0.59798 0.76056,-1.15243 1.21953,-1.65377 0.16804,-0.18462 0.34412,-0.36008 0.5276,-0.52577 0.3705,-0.33818 0.74828,-0.66648 1.13304,-0.98461 z m 6.01979,-7.25557 -1.11573,-1.47214 -0.84762,-1.13756 c -0.50033,-0.67784 -0.9736,-1.37953 -1.41846,-2.10306 -0.38112,-0.62348 -0.7333,-1.26798 -1.05518,-1.93099 -0.25969,-0.52433 -0.45736,-1.08334 -0.58815,-1.66334 -0.13177,-0.54225 -0.1958,-1.10189 -0.19027,-1.66333 0.004,-0.59116 0.1127,-1.17572 0.32001,-1.72068 0.19737,-0.5103 0.48902,-0.9694 0.85627,-1.34788 0.36332,-0.36488 0.78594,-0.65033 1.24547,-0.84122 0.49584,-0.20155 1.01989,-0.3051 1.5482,-0.3059 0.50282,6e-4 1.00226,0.091 1.479,0.26766 0.45595,0.16808 0.8829,0.42018 1.26277,0.74564 0.39938,0.3396 0.75446,0.73849 1.0552,1.18536 0.29907,0.45211 0.54062,0.94745 0.71788,1.47214 0.1485,0.45438 0.26419,0.92107 0.34596,1.39566 0.0748,0.49295 0.11523,0.99149 0.12108,1.49126 -3.3e-4,0.841 -0.0933,1.67883 -0.27676,2.495 -0.14434,0.6353 -0.37782,1.24171 -0.69194,1.79716 -0.2712,0.47615 -0.58096,0.92409 -0.92545,1.33832 -0.58135,0.70188 -1.19631,1.3688 -1.84227,1.9979 z"
       style="fill:#000000;fill-opacity:1;fill-rule:evenodd;stroke:#ffffff;stroke-width:0.88319623;stroke-linecap:butt;stroke-linejoin:miter;stroke-miterlimit:4;stroke-opacity:1;stroke-dasharray:none"
       id="path4117" />
  </g>
</svg>
